<svg width="48" height="48" viewBox="0 0 48 48" fill="none" xmlns="http://www.w3.org/2000/svg">
<g clip-path="url(#clip0_168_1298)">
<path d="M24 44.4375C12.7127 44.4375 3.5625 35.2873 3.5625 24C3.5625 12.7127 12.7127 3.5625 24 3.5625C35.2873 3.5625 44.4375 12.7127 44.4375 24C44.4437 35.2811 35.3036 44.4313 24.0225 44.4375C24.015 44.4375 24.0075 44.4375 24 44.4375ZM24 17.6681C20.503 17.6681 17.6681 20.503 17.6681 24C17.6681 27.497 20.503 30.3319 24 30.3319C27.497 30.3319 30.3319 27.497 30.3319 24C30.3282 20.5045 27.4955 17.6718 24 17.6681Z" fill="#FFE145"/>
<path d="M24 48C10.7353 48 0 37.2656 0 24C0 10.7344 10.7344 0 24 0C37.2656 0 48 10.7344 48 24C48 37.2656 37.2656 48 24 48ZM24 1.5C11.5641 1.5 1.5 11.5631 1.5 24C1.5 36.4369 11.5631 46.5 24 46.5C36.4369 46.5 46.5 36.4369 46.5 24C46.5 11.5631 36.4369 1.5 24 1.5ZM24 31.0819C20.0887 31.0819 16.9181 27.9113 16.9181 24C16.9181 20.0887 20.0887 16.9181 24 16.9181C27.9113 16.9181 31.0819 20.0887 31.0819 24C31.0778 27.9095 27.9095 31.0778 24 31.0819ZM24 18.4191C20.9172 18.4191 18.4181 20.9182 18.4181 24.0009C18.4181 27.0837 20.9172 29.5828 24 29.5828C27.0828 29.5828 29.5819 27.0837 29.5819 24.0009C29.5819 24.0007 29.5819 24.0003 29.5819 24C29.5788 20.9185 27.0815 18.4212 24 18.4181V18.4191Z" fill="#B79C10"/>
<path d="M28.5694 12.5016V10.8984C28.5694 10.4842 28.2336 10.1484 27.8194 10.1484C27.4052 10.1484 27.0694 10.4842 27.0694 10.8984V12.5016C27.0694 12.9158 27.4052 13.2516 27.8194 13.2516C28.2336 13.2516 28.5694 12.9158 28.5694 12.5016Z" fill="#B79C10"/>
<path d="M35.4944 11.1969V9.59375C35.4944 9.17954 35.1586 8.84375 34.7444 8.84375C34.3302 8.84375 33.9944 9.17954 33.9944 9.59375V11.1969C33.9944 11.6111 34.3302 11.9469 34.7444 11.9469C35.1586 11.9469 35.4944 11.6111 35.4944 11.1969Z" fill="#B79C10"/>
<path d="M36.4894 22.1651V20.562C36.4894 20.1478 36.1536 19.812 35.7394 19.812C35.3252 19.812 34.9894 20.1478 34.9894 20.562V22.1651C34.9894 22.5793 35.3252 22.9151 35.7394 22.9151C36.1536 22.9151 36.4894 22.5794 36.4894 22.1651Z" fill="#B79C10"/>
<path d="M30.5018 40.7574V39.1543C30.5018 38.7401 30.166 38.4043 29.7518 38.4043C29.3376 38.4043 29.0018 38.7401 29.0018 39.1543V40.7574C29.0018 41.1716 29.3376 41.5074 29.7518 41.5074C30.166 41.5074 30.5018 41.1716 30.5018 40.7574Z" fill="#B79C10"/>
<path d="M23.9494 35.9747V34.3716C23.9494 33.9574 23.6136 33.6216 23.1994 33.6216C22.7852 33.6216 22.4494 33.9574 22.4494 34.3716V35.9747C22.4494 36.3889 22.7852 36.7247 23.1994 36.7247C23.6136 36.7247 23.9494 36.3889 23.9494 35.9747Z" fill="#B79C10"/>
<path d="M17.7522 39.4059V37.8027C17.7522 37.3885 17.4164 37.0527 17.0022 37.0527C16.588 37.0527 16.2522 37.3885 16.2522 37.8027V39.4059C16.2522 39.8201 16.588 40.1559 17.0022 40.1559C17.4164 40.1559 17.7522 39.8201 17.7522 39.4059Z" fill="#B79C10"/>
<path d="M41.5466 29.6466V28.0435C41.5466 27.6292 41.2108 27.2935 40.7966 27.2935C40.3824 27.2935 40.0466 27.6292 40.0466 28.0435V29.6466C40.0466 30.0608 40.3824 30.3966 40.7966 30.3966C41.2108 30.3966 41.5466 30.0608 41.5466 29.6466Z" fill="#B79C10"/>
<path d="M33.7181 32.3551V30.752C33.7181 30.3377 33.3823 30.002 32.9681 30.002C32.5539 30.002 32.2181 30.3377 32.2181 30.752V32.3551C32.2181 32.7693 32.5539 33.1051 32.9681 33.1051C33.3823 33.1051 33.7181 32.7693 33.7181 32.3551Z" fill="#B79C10"/>
<path d="M14.9709 18.7633V17.1602C14.9709 16.7459 14.6352 16.4102 14.2209 16.4102C13.8067 16.4102 13.4709 16.7459 13.4709 17.1602V18.7633C13.4709 19.1775 13.8067 19.5133 14.2209 19.5133C14.6352 19.5133 14.9709 19.1775 14.9709 18.7633Z" fill="#B79C10"/>
<path d="M18.3197 8.50111V6.89893C18.3197 6.48471 17.9839 6.14893 17.5697 6.14893C17.1555 6.14893 16.8197 6.48471 16.8197 6.89893V8.50111C16.8197 8.91533 17.1555 9.25111 17.5697 9.25111C17.9839 9.25111 18.3197 8.91533 18.3197 8.50111Z" fill="#B79C10"/>
<path d="M7.5625 24.5006V22.8975C7.5625 22.4832 7.22671 22.1475 6.8125 22.1475C6.39829 22.1475 6.0625 22.4832 6.0625 22.8975V24.5006C6.0625 24.9148 6.39829 25.2506 6.8125 25.2506C7.22671 25.2506 7.5625 24.9148 7.5625 24.5006Z" fill="#B79C10"/>
<path d="M14.5434 31.6105V30.0073C14.5434 29.5931 14.2076 29.2573 13.7934 29.2573C13.3792 29.2573 13.0434 29.5931 13.0434 30.0073V31.6105C13.0434 32.0247 13.3792 32.3605 13.7934 32.3605C14.2076 32.3605 14.5434 32.0247 14.5434 31.6105Z" fill="#B79C10"/>
</g>
<defs>
<clipPath id="clip0_168_1298">
<rect width="48" height="48" fill="white"/>
</clipPath>
</defs>
</svg>
