<svg width="48" height="48" viewBox="0 0 48 48" fill="none" xmlns="http://www.w3.org/2000/svg">
<path d="M40.8028 36.0703V37.0078C40.8028 39.0561 39.1423 40.7166 37.094 40.7166H10.9059C8.85764 40.7166 7.19714 39.0561 7.19714 37.0078V36.0703H40.8028Z" fill="#FFE145"/>
<path d="M40.7559 16.3877V17.9158H7.24493V16.3877C7.24493 11.3592 11.3214 7.28271 16.3499 7.28271H31.6509C36.6794 7.28271 40.7559 11.3592 40.7559 16.3877Z" fill="#FFE145"/>
<path d="M48 26.2427H47.0625C48.3796 24.5535 48.0779 22.1164 46.3887 20.7993C45.7927 20.3345 45.0737 20.0541 44.3203 19.9924V16.3877C44.3203 9.4024 38.6372 3.72021 31.6528 3.72021H16.35C9.36469 3.72021 3.6825 9.40334 3.6825 16.3877V19.9924C1.54753 20.1657 -0.04275 22.0369 0.1305 24.1719C0.191719 24.9261 0.472219 25.6459 0.9375 26.2427H0V27.7427H1.99406V34.008H3.63469V37.008C3.63881 41.0221 6.89184 44.2752 10.9059 44.2793H37.0941C41.1082 44.2752 44.3612 41.0221 44.3653 37.008V34.008H46.0059V27.7427H48V26.2427ZM5.18156 16.3877C5.18831 10.2223 10.1846 5.22603 16.35 5.21928H31.65C37.8154 5.22603 42.8117 10.2223 42.8184 16.3877V19.9783H5.18156V16.3877ZM4.00125 21.4783H43.9987C45.3146 21.4783 46.3814 22.5451 46.3814 23.861C46.3814 25.1769 45.3146 26.2437 43.9987 26.2437H4.00125C2.68538 26.2437 1.61859 25.1769 1.61859 23.861C1.61859 22.5451 2.68538 21.4783 4.00125 21.4783ZM37.7859 27.7437L34.7109 29.1502L31.6359 27.7437H37.7859ZM42.8644 37.009C42.8607 40.1949 40.279 42.7766 37.0931 42.7802H10.9059C7.72003 42.7766 5.13834 40.1949 5.13469 37.009V34.009H42.8653L42.8644 37.009ZM44.505 32.509H3.49406V27.7427H29.2031L34.7109 31.0552L40.2188 27.7427H44.505V32.509Z" fill="#B79C10"/>
</svg>
