<svg width="48" height="48" viewBox="0 0 48 48" fill="none" xmlns="http://www.w3.org/2000/svg">
<path d="M23.9999 0L4.55882 38.0969C9.63839 44.8034 16.7005 48 23.9999 48C31.2243 48 38.3174 44.8616 43.4411 38.0969L23.9999 0ZM39.2547 33.1947C34.1723 41.6194 23.2225 44.3288 14.7978 39.2464C12.3188 37.7509 10.2417 35.6737 8.74617 33.1947L23.9999 3.30263L39.2547 33.1947ZM23.9999 46.4989C17.1075 46.5058 10.5929 43.3497 6.32648 37.9366L7.95435 34.7466C13.8945 43.6073 25.8929 45.975 34.7536 40.0348C36.844 38.6333 38.6404 36.837 40.0419 34.7466L41.6698 37.9366C37.4039 43.3486 30.891 46.5047 23.9999 46.4989Z" fill="#B79C10"/>
<path d="M28.222 16.119C28.1702 17.6441 26.8917 18.8385 25.3666 18.7865C23.8415 18.7347 22.6471 17.4562 22.699 15.9311C22.751 14.406 24.0293 13.2116 25.5545 13.2635C26.0714 13.2811 26.5731 13.4434 27.0023 13.7321L24 7.84375L11.1275 33.0681C16.1383 40.1772 25.9634 41.8781 33.0724 36.8674C34.5471 35.8279 35.8322 34.5429 36.8717 33.0681L28.222 16.119ZM18.4701 28.8161C16.943 28.8161 15.7051 27.5782 15.7051 26.0511C15.7051 24.524 16.943 23.2862 18.4701 23.2862C19.9972 23.2862 21.235 24.524 21.235 26.0511C21.235 27.5782 19.9972 28.8161 18.4701 28.8161ZM29.1443 35.4278C27.6173 35.4278 26.3794 34.1899 26.3794 32.6628C26.3794 31.1357 27.6173 29.8979 29.1443 29.8979C30.6703 29.8979 31.9077 31.1341 31.9093 32.66C31.9109 34.1871 30.6743 35.4262 29.1472 35.4278C29.1462 35.4278 29.1453 35.4278 29.1443 35.4278Z" fill="#FFE145"/>
<path d="M29.1443 36.1785C27.2028 36.1785 25.6288 34.6046 25.6288 32.663C25.6288 30.7214 27.2028 29.1475 29.1443 29.1475C31.0859 29.1475 32.6598 30.7214 32.6598 32.663C32.6578 34.6037 31.085 36.1765 29.1443 36.1785ZM29.1443 30.6486C28.0318 30.6486 27.1299 31.5505 27.1299 32.663C27.1299 33.7755 28.0318 34.6774 29.1443 34.6774C30.2568 34.6774 31.1587 33.7755 31.1587 32.663C31.1608 31.5494 30.2598 30.645 29.1462 30.643C29.1455 30.643 29.145 30.643 29.1443 30.643V30.6486V30.6486Z" fill="#B79C10"/>
<path d="M18.47 29.5667C16.5285 29.5667 14.9545 27.9927 14.9545 26.0512C14.9545 24.1096 16.5285 22.5356 18.47 22.5356C20.4116 22.5356 21.9856 24.1096 21.9856 26.0512C21.9835 27.9919 20.4108 29.5647 18.47 29.5667ZM18.47 24.0368C17.3575 24.0368 16.4556 24.9387 16.4556 26.0512C16.4556 27.1637 17.3575 28.0656 18.47 28.0656C19.5826 28.0656 20.4845 27.1637 20.4845 26.0512C20.4829 24.9395 19.5817 24.0387 18.47 24.0377V24.0368Z" fill="#B79C10"/>
<path d="M25.4599 19.5408C23.5183 19.5424 21.9431 17.9697 21.9415 16.0281C21.94 14.0866 23.5127 12.5114 25.4543 12.5098C27.3958 12.5082 28.971 14.0809 28.9726 16.0225C28.9726 16.0234 28.9726 16.0244 28.9726 16.0253C28.9706 17.9649 27.3995 19.5372 25.4599 19.5408ZM25.4599 14.0109C24.3474 14.0093 23.4443 14.9099 23.4427 16.0225C23.4411 17.135 24.3416 18.0381 25.4543 18.0397C26.5669 18.0413 27.4699 17.1407 27.4715 16.0281C27.4715 16.0272 27.4715 16.0262 27.4715 16.0253C27.4705 14.9143 26.5708 14.0135 25.4599 14.0109Z" fill="#B79C10"/>
</svg>
