<svg width="48" height="48" viewBox="0 0 48 48" fill="none" xmlns="http://www.w3.org/2000/svg">
<path d="M24 11.8959C22.9059 10.0012 21.8906 7.66969 21.8906 5.67187C21.8906 4.50694 22.8351 3.5625 24 3.5625C25.1649 3.5625 26.1094 4.50694 26.1094 5.67187C26.1094 7.65937 25.0847 10.0012 24 11.8959Z" fill="#FFE145"/>
<path d="M12.7922 24.9897C11.6273 24.9897 10.6829 24.0453 10.6829 22.8804C10.6829 21.7154 11.6273 20.771 12.7922 20.771C14.7797 20.771 17.1216 21.7966 19.0163 22.8841C17.1216 23.9735 14.791 24.9897 12.7922 24.9897Z" fill="#FFE145"/>
<path d="M35.2078 24.9897C33.2081 24.9897 30.8747 23.9716 28.9781 22.8804C30.8738 21.7891 33.2081 20.771 35.2078 20.771C36.3728 20.771 37.3172 21.7154 37.3172 22.8804C37.3172 24.0453 36.3728 24.9897 35.2078 24.9897Z" fill="#FFE145"/>
<path d="M12.7922 38.9126C11.6273 38.9126 10.6829 37.9682 10.6829 36.8032C10.6829 35.6383 11.6273 34.6938 12.7922 34.6938C14.7797 34.6938 17.1216 35.7195 19.0163 36.807C17.1216 37.8963 14.791 38.9126 12.7922 38.9126Z" fill="#FFE145"/>
<path d="M35.2078 38.9126C33.2081 38.9126 30.8747 37.8945 28.9781 36.8032C30.8738 35.712 33.2081 34.6938 35.2078 34.6938C36.3728 34.6938 37.3172 35.6383 37.3172 36.8032C37.3172 37.9682 36.3728 38.9126 35.2078 38.9126Z" fill="#FFE145"/>
<path d="M35.2079 31.1316C32.88 31.1316 30.2007 31.9931 27.2447 33.6928C26.2435 34.2684 25.3885 34.8403 24.75 35.295V24.3891C25.3885 24.8438 26.2444 25.4203 27.2447 25.9912C30.1997 27.6909 32.8791 28.5525 35.2079 28.5525C38.3403 28.5525 40.8797 26.0131 40.8797 22.8806C40.8797 19.7482 38.3403 17.2087 35.2079 17.2087C32.88 17.2087 30.2007 18.0703 27.2447 19.77C26.2444 20.3438 25.3885 20.9166 24.75 21.375V17.1441C25.619 16.0315 26.4082 14.8589 27.1116 13.635C28.8113 10.6791 29.6729 8.00062 29.6729 5.67188C29.6729 2.53941 27.1334 0 24.001 0C20.8685 0 18.3291 2.53941 18.3291 5.67188C18.3291 7.99969 19.1907 10.6791 20.8904 13.635C21.5932 14.8589 22.3817 16.0315 23.25 17.1441V21.375C22.6116 20.9203 21.7557 20.3438 20.7554 19.7728C17.8004 18.0731 15.121 17.2116 12.7922 17.2116C9.65976 17.2116 7.12035 19.751 7.12035 22.8834C7.12035 26.0159 9.65976 28.5553 12.7922 28.5553C15.12 28.5553 17.7994 27.6937 20.7554 25.9941C21.7566 25.4184 22.6116 24.8466 23.25 24.3919V35.295C22.6116 34.8403 21.7557 34.2638 20.7554 33.6928C17.8004 31.9931 15.121 31.1316 12.7922 31.1316C9.65976 31.1316 7.12035 33.671 7.12035 36.8034C7.12035 39.9359 9.65976 42.4753 12.7922 42.4753C15.12 42.4753 17.7994 41.6138 20.7554 39.9141C21.7566 39.3384 22.6116 38.7666 23.25 38.3119V48H24.75V38.3119C25.3885 38.7666 26.2444 39.3431 27.2447 39.9141C30.1997 41.6138 32.8791 42.4753 35.2079 42.4753C38.3403 42.4753 40.8797 39.9359 40.8797 36.8034C40.8797 33.671 38.3403 31.1316 35.2079 31.1316ZM35.2079 18.7078C37.5119 18.7065 39.3809 20.5732 39.3822 22.8773C39.3835 25.1813 37.5168 27.0502 35.2127 27.0516C35.2111 27.0516 35.2094 27.0516 35.2079 27.0516C31.3107 27.0516 26.9447 24.1453 25.2291 22.8797C26.9447 21.615 31.3125 18.7078 35.2079 18.7078ZM19.8282 5.67188C19.8282 3.36778 21.6959 1.5 24 1.5C26.3041 1.5 28.1719 3.36778 28.1719 5.67188C28.1719 9.56906 25.2657 13.9359 23.9991 15.6516C22.7344 13.9378 19.8282 9.57562 19.8282 5.67188ZM12.7969 27.0516C10.4928 27.0516 8.62504 25.1838 8.62504 22.8797C8.62504 20.5756 10.4928 18.7078 12.7969 18.7078C16.6941 18.7078 21.061 21.6141 22.7766 22.8806C21.0582 24.1462 16.696 27.0525 12.7922 27.0525L12.7969 27.0516ZM12.7969 40.9753C10.4928 40.9753 8.62504 39.1075 8.62504 36.8034C8.62504 34.4993 10.4928 32.6316 12.7969 32.6316C16.6941 32.6316 21.061 35.5378 22.7766 36.8044C21.0582 38.0691 16.696 40.9753 12.7922 40.9753H12.7969ZM35.2125 40.9753C31.3154 40.9753 26.9494 38.0691 25.2338 36.8034C26.9494 35.5378 31.3163 32.6316 35.2125 32.6316C37.5166 32.6316 39.3844 34.4993 39.3844 36.8034C39.3844 39.1075 37.5166 40.9753 35.2125 40.9753Z" fill="#B79C10"/>
</svg>
