<svg width="48" height="48" viewBox="0 0 48 48" fill="none" xmlns="http://www.w3.org/2000/svg">
<g clip-path="url(#clip0_168_1293)">
<circle cx="23" cy="25" r="23" fill="#FFE145"/>
<path d="M25 46.0003C29.1791 46.004 33.2797 44.8657 36.8588 42.7082C37.2213 42.4891 37.3375 42.0177 37.1183 41.6552C36.8992 41.2928 36.4278 41.1766 36.0653 41.3957C29.0758 45.5909 20.3131 45.4651 13.4468 41.071C6.58058 36.6769 2.79571 28.7728 3.67718 20.6687C4.55865 12.5646 9.95435 5.65902 17.6047 2.84386C18.0023 2.698 18.2064 2.25744 18.0605 1.85985C17.9147 1.46226 17.4741 1.25819 17.0765 1.40406C6.60261 5.24137 0.392008 16.041 2.34333 27.0238C4.29465 38.0065 13.8453 46.0058 25 46.0003Z" fill="#313030"/>
<path d="M32.3953 2.84386C38.451 5.06881 43.1859 9.89795 45.291 15.9963C47.3962 22.0947 46.6487 28.8164 43.2551 34.3033C43.1108 34.5361 43.1016 34.8282 43.231 35.0696C43.3605 35.3111 43.6089 35.4651 43.8827 35.4737C44.1565 35.4823 44.4141 35.3442 44.5584 35.1113C48.1954 29.2327 48.9969 22.0305 46.7414 15.4962C44.4859 8.96177 39.4123 3.78753 32.9235 1.40406C32.5259 1.25819 32.0854 1.46226 31.9395 1.85985C31.7936 2.25744 31.9977 2.698 32.3953 2.84386Z" fill="#313030"/>
<path d="M21.9333 14.2448V20.7239C21.1201 21.7993 20.9374 23.225 21.4533 24.4706C21.9692 25.7162 23.1065 26.5952 24.4419 26.7806L30.4165 32.7553L30.4211 32.7622L41.2633 43.6005C41.5509 43.8882 41.941 44.0499 42.3478 44.0499C42.7545 44.0499 43.1447 43.8882 43.4322 43.6005C45.8334 41.1986 44.4143 38.0805 38.0111 31.6743L34.7582 28.4213H34.7528L28.7766 22.4413C28.6858 21.8189 28.4418 21.2288 28.0667 20.7239V14.2433C29.4645 13.6365 30.3683 12.2573 30.3667 10.7335V2.30017C30.371 1.68964 30.1266 1.10366 29.6897 0.677133C29.6534 0.637925 29.6139 0.601769 29.5717 0.569033C28.7005 -0.200159 27.3892 -0.187253 26.5333 0.598933C26.1094 0.207447 25.5517 -0.0068174 24.9747 0.000165465C24.4153 0.0123986 23.8787 0.224533 23.4621 0.598166C22.6141 -0.181995 21.3155 -0.200806 20.4452 0.554466C19.9286 0.986775 19.6311 1.62652 19.6333 2.30017V10.7335C19.6311 12.2579 20.535 13.6378 21.9333 14.2448ZM30.9647 31.1269L26.3946 26.5575C27.3866 26.1679 28.1716 25.3829 28.5612 24.3909L33.1267 28.9649L30.9647 31.1269ZM26.5333 19.4919C25.5571 19.0585 24.443 19.0585 23.4667 19.4919V14.5668H26.5333V19.4919ZM22.7 23.0002C22.7 21.7299 23.7298 20.7002 25 20.7002C26.2703 20.7002 27.3 21.7299 27.3 23.0002C27.3 24.2704 26.2703 25.3002 25 25.3002C23.7298 25.3002 22.7 24.2704 22.7 23.0002ZM42.3474 42.5165L32.048 32.2163L34.2161 30.0482L36.9271 32.7583C44.5163 40.3476 43.1593 41.7069 42.3474 42.5165ZM21.1667 2.30017C21.1687 2.07391 21.2705 1.86009 21.445 1.71597C21.7494 1.45653 22.2032 1.4794 22.48 1.7681C22.6222 1.90847 22.7015 2.10038 22.7 2.30017V8.43351C22.7 8.85692 23.0433 9.20017 23.4667 9.20017C23.8901 9.20017 24.2333 8.85692 24.2333 8.43351V2.30017C24.2393 1.89987 24.5468 1.56882 24.9456 1.5335H25.0721C25.4652 1.57455 25.7645 1.90488 25.7667 2.30017V8.43351C25.7667 8.85692 26.1099 9.20017 26.5333 9.20017C26.9568 9.20017 27.3 8.85692 27.3 8.43351V2.30017C27.3 1.87675 27.6433 1.5335 28.0667 1.5335C28.4901 1.5335 28.8334 1.87675 28.8334 2.30017V10.7335C28.8339 11.7882 28.1157 12.7075 27.0922 12.9622C26.9102 13.012 26.7221 13.036 26.5333 13.0335H23.4667C23.2713 13.0352 23.0767 13.0094 22.8886 12.9568C21.8736 12.6969 21.1644 11.7813 21.1667 10.7335V2.30017Z" fill="#313030"/>
<path d="M18.0303 5.96028C17.854 5.5755 17.3993 5.40632 17.0144 5.58231C16.4877 5.82304 15.981 6.09368 15.4811 6.37811C15.4589 6.38885 15.4351 6.38885 15.4136 6.40111C15.3922 6.41338 15.3745 6.43945 15.3515 6.45555C12.5043 8.12031 10.1348 10.4917 8.47221 13.3402C8.44683 13.364 8.42325 13.3896 8.40168 13.4169C8.38929 13.446 8.37904 13.476 8.37101 13.5066C4.98194 19.3999 4.98779 26.652 8.38635 32.5399C8.39401 32.5537 8.39325 32.5698 8.40168 32.5836C8.41011 32.5974 8.42928 32.6181 8.44231 32.6365C10.1196 35.5061 12.5099 37.8938 15.3814 39.5679C15.3945 39.5771 15.4021 39.5909 15.4167 39.5993C15.4384 39.6097 15.4607 39.6189 15.4834 39.6269C21.1969 42.9082 28.1973 43.0169 34.0099 39.9144C34.2588 39.7893 34.4202 39.5391 34.4316 39.2608C34.443 38.9825 34.3026 38.7199 34.0647 38.5749C33.8269 38.4298 33.5291 38.4252 33.2869 38.5628C30.9647 39.7985 28.3949 40.498 25.7667 40.6098V39.1002C25.7667 38.6768 25.4234 38.3336 25 38.3336C24.5766 38.3336 24.2334 38.6768 24.2334 39.1002V40.6144C21.6594 40.5051 19.1413 39.8289 16.8588 38.6341L17.614 37.3269C17.7531 37.0896 17.7544 36.7959 17.6174 36.5573C17.4803 36.3188 17.226 36.1719 16.9509 36.1725C16.6758 36.1731 16.4221 36.3211 16.2861 36.5603L15.5325 37.8636C13.3636 36.4767 11.522 34.6351 10.1351 32.4663L11.4384 31.7126C11.6776 31.5767 11.8256 31.323 11.8262 31.0478C11.8268 30.7727 11.6799 30.5184 11.4414 30.3814C11.2028 30.2443 10.9091 30.2456 10.6718 30.3848L9.36845 31.1399C8.1731 28.8581 7.49613 26.3405 7.38585 23.7669H8.90001C9.32343 23.7669 9.66668 23.4236 9.66668 23.0002C9.66668 22.5768 9.32343 22.2336 8.90001 22.2336H7.39505C7.50747 19.6618 8.1835 17.1461 9.37535 14.8644L10.6733 15.6142C10.9107 15.7533 11.2043 15.7546 11.4429 15.6176C11.6815 15.4805 11.8283 15.2262 11.8277 14.9511C11.8271 14.676 11.6791 14.4223 11.44 14.2863L10.1366 13.5334C11.5198 11.362 13.3612 9.51929 15.5317 8.13455L16.2861 9.43788C16.4221 9.67704 16.6758 9.82501 16.9509 9.82562C17.226 9.82622 17.4803 9.67937 17.6174 9.44081C17.7544 9.20225 17.7531 8.90855 17.614 8.67121L16.8634 7.36788C17.1241 7.23218 17.3832 7.09418 17.6523 6.97075C18.034 6.79455 18.2027 6.34376 18.0303 5.96028Z" fill="#313030"/>
<path d="M40.8585 32.3384C41.0375 32.435 41.2474 32.4566 41.4422 32.3983C41.6371 32.3401 41.8008 32.2069 41.8974 32.0279C45.0159 26.223 44.9145 19.2189 41.629 13.5068C41.621 13.4762 41.6107 13.4462 41.5984 13.4171C41.5771 13.3898 41.5537 13.3642 41.5286 13.3404C39.8648 10.4915 37.494 8.12013 34.6455 6.45575C34.6225 6.43965 34.6079 6.41588 34.5833 6.40131C34.5613 6.39276 34.5387 6.38534 34.5159 6.37908C34.0191 6.09388 33.5123 5.82325 32.9825 5.58251C32.6012 5.42597 32.1644 5.59895 31.9936 5.97412C31.8228 6.34928 31.9793 6.79232 32.3477 6.97708C32.6168 7.10052 32.876 7.23851 33.1366 7.37421L32.3861 8.67755C32.2469 8.91489 32.2456 9.20858 32.3827 9.44714C32.5197 9.6857 32.774 9.83256 33.0492 9.83195C33.3243 9.83135 33.578 9.68338 33.714 9.44422L34.4683 8.14088C36.6388 9.52562 38.4802 11.3683 39.8634 13.5397L38.5601 14.2926C38.3209 14.4286 38.1729 14.6823 38.1723 14.9574C38.1717 15.2325 38.3186 15.4869 38.5571 15.6239C38.7957 15.7609 39.0894 15.7596 39.3267 15.6205L40.6247 14.8707C41.8157 17.1505 42.4917 19.664 42.605 22.2338H41.1C40.6766 22.2338 40.3334 22.577 40.3334 23.0004C40.3334 23.4238 40.6766 23.7671 41.1 23.7671H42.6096C42.4995 26.4013 41.7947 28.9764 40.548 31.2996C40.4514 31.4785 40.4299 31.6885 40.4881 31.8833C40.5463 32.0781 40.6796 32.2418 40.8585 32.3384Z" fill="#313030"/>
</g>
<defs>
<clipPath id="clip0_168_1293">
<rect width="48" height="48" fill="white"/>
</clipPath>
</defs>
</svg>
